<?xml version="1.0" encoding="utf-8"?>
<!-- Generator: Adobe Illustrator 21.1.0, SVG Export Plug-In . SVG Version: 6.00 Build 0)  -->
<svg version="1.1" id="Capa_1" xmlns="http://www.w3.org/2000/svg" xmlns:xlink="http://www.w3.org/1999/xlink" x="0px" y="0px"
	 viewBox="0 0 200 200" style="enable-background:new 0 0 200 200;" xml:space="preserve">
<style type="text/css">
	.st0{fill:#9BB93D;}
	.st1{fill:#399CD7;}
	.st2{fill:none;}
	.st3{fill:#D48331;}
	.st4{fill:#514A50;}
	.st5{fill:#E7BA65;}
	.st6{fill:#CEA560;}
	.st7{fill:#E6C589;}
	.st8{fill:#D99359;}
	.st9{fill:#C37936;}
	.st10{fill:#8BA23C;}
	.st11{fill:#3489B4;}
	.st12{fill:#28567E;}
	.st13{fill:#265278;}
	.st14{font-family:'ArialMT';}
	.st15{font-size:4.0887px;}
	.st16{fill:none;stroke:#265278;stroke-width:0.9;}
</style>
<g>
	<g>
		<path class="st0" d="M45.6,82.6l10.4,55l30.7,2v-57H45.6z M63,138.1l-5.9-45.6h2.8l4.9,45.8L63,138.1z M68.2,138.4l-4.7-46h2.8
			l3.5,46.1L68.2,138.4z M73.3,138.7l-2.8-46.3h2.3l2.4,46.4L73.3,138.7z"/>
		<path class="st1" d="M114,59.3v80.3l17-1.5l4.2-58.5h3.1l-5.1,58.4l3.1-0.3l6.3-58.1h3.4l-7.4,57.9l6.6-0.6l10.5-77.5H114z
			 M127.1,138.4l-2,0.2l2.2-59.1h3.2L127.1,138.4z"/>
		<path class="st2" d="M79,43h1.6C79.6,43,79,43,79,43z"/>
		<path class="st3" d="M89.6,46.3C89.6,46.3,89.6,46.3,89.6,46.3C89.6,46.3,89.6,46.3,89.6,46.3z"/>
		<g>
			<polygon class="st4" points="94.9,13 106.2,13 100.3,2 			"/>
			<g>
				<path class="st5" d="M100.2,39.1c4.8,0,7.9,1.9,10.2,4.7c2.2-2.5,8.4-3.9,11.8-4.5l-13.4-22.8l-16.2,0L78.9,39.1
					c2.8,0.5,8,1.6,11.4,4.4C92.6,40.8,95.5,39,100.2,39.1z"/>
				<path class="st6" d="M78.9,39.1c0,0,6.8,0.8,11.4,4.4l7.3-27l-5,0L78.9,39.1z"/>
				<path class="st7" d="M110.4,43.8c0,0,4.1-3.2,11.8-4.5l-13.4-22.8h-4.8L110.4,43.8z"/>
			</g>
		</g>
		<polygon class="st3" points="122.2,54.9 122.2,42.5 122,42.5 122,54.9 		"/>
		<path class="st3" d="M121.9,42.5C122,42.5,122,42.5,121.9,42.5c0.1,0-1.1,0.2-2.7,0.5c-2.8,0.6-6.9,2-9,4.3
			C113.3,44,121.2,42.6,121.9,42.5z"/>
		<path class="st8" d="M122,54.9l0-12.5c0,0,0,0-0.1,0c-0.8,0.1-8.6,1.5-11.6,4.8c-0.1,0.1-0.2,0.2-0.3,0.3v7.3H122z"/>
		<path class="st9" d="M89.6,46.3C89.6,46.3,89.6,46.3,89.6,46.3c-5-3.9-10.7-3.8-10.7-3.8v36.2h11.8V47.2
			C90.4,46.9,90,46.6,89.6,46.3z"/>
		<path class="st3" d="M110,47.6c-2-2.8-5.6-4.7-9.7-4.8c-4,0-7.5,1.7-9.6,4.4v31.4v59.5H110V54.9V47.6z"/>
		<polygon class="st10" points="78.9,82.6 81.2,139.2 86.7,139.6 86.7,82.6 		"/>
		<polygon class="st11" points="114,59.3 122.2,59.4 119.6,139.1 114,139.6 		"/>
	</g>
	<g>
		<path class="st12" d="M43.9,148.6v3.9c-3.5-1.3-6.8-2-9.8-2c-3.8,0-7,0.9-9.7,2.8c-2.6,1.9-3.9,4.2-3.9,7c0,2.8,1.3,5.2,4,7.1
			c2.7,1.9,6,2.8,10.1,2.8c2.9,0,6-0.7,9.3-2.1v4c-3,1.2-6.2,1.8-9.7,1.8c-5.1,0-9.4-1.3-13.1-4c-3.6-2.7-5.4-5.9-5.4-9.6
			c0-3.7,1.8-6.8,5.3-9.4c3.6-2.6,7.8-3.9,12.8-3.9C37.1,147,40.4,147.5,43.9,148.6z"/>
		<path class="st12" d="M49.1,147.8h4.4v25.3h-4.4V147.8z"/>
		<path class="st12" d="M60.7,147.8h4.5v15.5c0,2.3,0.7,4.1,2.2,5.3c1.4,1.3,3.5,1.9,6.1,1.9c2.6,0,4.6-0.6,6.1-1.7
			c1.5-1.2,2.2-2.8,2.2-4.9v-16.1h4.5v15.9c0,3.1-1.1,5.6-3.4,7.4c-2.3,1.9-5.4,2.8-9.2,2.8c-3.9,0-7-0.9-9.4-2.8
			c-2.3-1.9-3.5-4.7-3.5-8.3V147.8z"/>
		<path class="st12" d="M92.8,147.8h8c6.3,0,11,1.3,14.1,3.9c3.1,2.6,4.6,5.5,4.6,8.8c0,3.3-1.6,6.3-4.8,8.8
			c-3.2,2.6-7.8,3.8-13.9,3.8h-8V147.8z M97.3,151.1v18.5h0.3c3.3,0,5.8-0.1,7.5-0.3c1.7-0.2,3.3-0.7,4.8-1.5
			c1.5-0.8,2.7-1.8,3.6-3.1c0.9-1.3,1.3-2.7,1.3-4.3c0-1.9-0.7-3.7-2.1-5.3c-1.4-1.6-3.1-2.6-5.1-3.2c-2-0.5-4.7-0.8-8-0.8H97.3z"/>
		<path class="st12" d="M135.9,146.8l15.5,26.3h-4.7l-3.8-6.5h-14l-3.8,6.5h-4.7L135.9,146.8z M135.8,154.7l-5.3,9h10.6L135.8,154.7
			z"/>
		<path class="st12" d="M155.6,147.8h8c6.3,0,11,1.3,14.1,3.9c3.1,2.6,4.6,5.5,4.6,8.8c0,3.3-1.6,6.3-4.8,8.8
			c-3.2,2.6-7.8,3.8-13.9,3.8h-8V147.8z M160.1,151.1v18.5h0.3c3.3,0,5.8-0.1,7.5-0.3c1.7-0.2,3.3-0.7,4.8-1.5
			c1.5-0.8,2.7-1.8,3.6-3.1c0.9-1.3,1.3-2.7,1.3-4.3c0-1.9-0.7-3.7-2.1-5.3c-1.4-1.6-3.1-2.6-5.1-3.2c-2-0.5-4.7-0.8-8-0.8H160.1z"
			/>
	</g>
	<g>
		<path class="st12" d="M16,180h12.7v2.4h-9.6v4.4h9.6v2.4h-9.6v6.1h9.6v2.4H16V180z"/>
		<path class="st12" d="M32.5,180H38c4.4,0,7.7,0.9,9.8,2.7c2.2,1.8,3.2,3.8,3.2,6.1c0,2.3-1.1,4.4-3.3,6.2
			c-2.2,1.8-5.5,2.7-9.7,2.7h-5.6V180z M35.6,182.3v12.9h0.2c2.3,0,4.1-0.1,5.3-0.2c1.2-0.2,2.3-0.5,3.4-1.1
			c1.1-0.5,1.9-1.3,2.5-2.2c0.6-0.9,0.9-1.9,0.9-3c0-1.4-0.5-2.6-1.5-3.7c-1-1.1-2.2-1.8-3.6-2.2c-1.4-0.4-3.3-0.6-5.6-0.6H35.6z"/>
		<path class="st12" d="M54.6,180h3.1v10.9c0,1.6,0.5,2.9,1.5,3.7c1,0.9,2.4,1.3,4.3,1.3c1.8,0,3.2-0.4,4.3-1.2
			c1-0.8,1.5-1.9,1.5-3.4V180h3.1v11.1c0,2.2-0.8,3.9-2.4,5.2c-1.6,1.3-3.7,1.9-6.4,1.9c-2.7,0-4.9-0.7-6.6-2
			c-1.6-1.3-2.5-3.3-2.5-5.8V180z"/>
		<path class="st12" d="M95.6,180.6v2.7c-2.5-0.9-4.8-1.4-6.8-1.4c-2.7,0-4.9,0.7-6.7,2c-1.8,1.3-2.7,3-2.7,4.9c0,2,0.9,3.6,2.8,4.9
			c1.9,1.3,4.2,2,7,2c2,0,4.2-0.5,6.5-1.5v2.8c-2.1,0.9-4.3,1.3-6.8,1.3c-3.6,0-6.6-0.9-9.1-2.8c-2.5-1.9-3.8-4.1-3.8-6.7
			c0-2.6,1.2-4.8,3.7-6.6c2.5-1.8,5.5-2.7,9-2.7C90.9,179.4,93.2,179.8,95.6,180.6z"/>
		<path class="st12" d="M107.9,179.3l10.8,18.4h-3.3l-2.7-4.5H103l-2.6,4.5h-3.3L107.9,179.3z M107.9,184.8l-3.7,6.3h7.4
			L107.9,184.8z"/>
		<path class="st12" d="M118.4,180h14v2.4h-5.5v15.3h-3.1v-15.3h-5.5V180z"/>
		<path class="st12" d="M135.9,180h3.1v17.7h-3.1V180z"/>
		<path class="st12" d="M142.1,180h3.3l7.2,12.5l7.3-12.5h3.3l-10.6,18.2L142.1,180z"/>
		<path class="st12" d="M172.3,179.3l10.8,18.4h-3.3l-2.7-4.5h-9.7l-2.6,4.5h-3.3L172.3,179.3z M172.3,184.8l-3.7,6.3h7.4
			L172.3,184.8z"/>
	</g>
	<g>
		<text transform="matrix(1.0057 0 0 1 176.9063 149.5352)" class="st13 st14 st15">R</text>
	</g>
	<ellipse class="st16" cx="178.4" cy="148.1" rx="2.2" ry="2.3"/>
</g>
</svg>
