<svg xmlns="http://www.w3.org/2000/svg" width="150" height="150" viewBox="0 0 150 150">
    <path class="clock-outer" d="M75 0C33.646 0 0 33.645 0 75s33.645 75 75 75 74.999-33.646 74.999-75C150 33.645 116.355 0 75 0zm0 139.732c-35.693 0-64.731-29.039-64.731-64.733C10.268 39.306 39.307 10.267 75 10.267S139.732 39.306 139.732 75c0 35.693-29.039 64.732-64.732 64.732z"/>
    <path class="hand hand-hour" d="M78 79.265c0 2.75-2.25 5-5 5h-.196c-2.75 0-5-2.25-5-5v-44.32c0-2.75 2.25-5 5-5H73c2.75 0 5 2.25 5 5v44.32z"/>
    <path class="hand hand-min" d="M117.125 74.068c2.75 0 5 2.25 5 5v.196c0 2.75-2.25 5-5 5H72.804c-2.75 0-5-2.25-5-5v-.196c0-2.75 2.25-5 5-5h44.321z"/>
</svg>

